<?xml version="1.0" encoding="UTF-8" standalone="no"?>
<svg
   xmlns:dc="http://purl.org/dc/elements/1.1/"
   xmlns:cc="http://creativecommons.org/ns#"
   xmlns:rdf="http://www.w3.org/1999/02/22-rdf-syntax-ns#"
   xmlns:svg="http://www.w3.org/2000/svg"
   xmlns="http://www.w3.org/2000/svg"
   xmlns:sodipodi="http://sodipodi.sourceforge.net/DTD/sodipodi-0.dtd"
   xmlns:inkscape="http://www.inkscape.org/namespaces/inkscape"
   width="234.525"
   height="50"
   viewBox="0 0 234.525 50"
   id="svg2"
   version="1.1"
   inkscape:version="0.48.5 r10040"
   sodipodi:docname="built_with_love.svg">
  <metadata
     id="metadata20">
    <rdf:RDF>
      <cc:Work
         rdf:about="">
        <dc:format>image/svg+xml</dc:format>
        <dc:type
           rdf:resource="http://purl.org/dc/dcmitype/StillImage" />
      </cc:Work>
    </rdf:RDF>
  </metadata>
  <defs
     id="defs18" />
  <sodipodi:namedview
     pagecolor="#ffffff"
     bordercolor="#666666"
     borderopacity="1"
     objecttolerance="10"
     gridtolerance="10"
     guidetolerance="10"
     inkscape:pageopacity="0"
     inkscape:pageshadow="2"
     inkscape:window-width="1143"
     inkscape:window-height="480"
     id="namedview16"
     showgrid="false"
     inkscape:zoom="1.8036457"
     inkscape:cx="117.2625"
     inkscape:cy="25"
     inkscape:window-x="541"
     inkscape:window-y="356"
     inkscape:window-maximized="0"
     inkscape:current-layer="g2997" />
  <g
     id="g2997">
    <g
       id="g2988">
      <path
         fill="#E46C17"
         d="M0 0h174.707v50H0z"
         id="path4"
         style="fill:#ff5555" />
      <path
         d="M21.432 18.634c0-.107.072-.18.18-.18h4.775c2.667 0 3.91 1.315 3.91 3.262 0 1.333-.612 2.162-1.423 2.613v.03c.81.304 1.64 1.313 1.64 2.772 0 2.414-1.604 3.567-4.253 3.567h-4.64c-.108 0-.18-.07-.18-.18V18.63zm4.63 4.83c1.01 0 1.605-.54 1.605-1.44 0-.902-.594-1.425-1.604-1.425H24.19c-.073 0-.11.03-.11.1v2.65c0 .07.037.11.11.11h1.873zm-1.873 5.1h2.01c1.08 0 1.657-.577 1.657-1.532 0-.938-.576-1.532-1.657-1.532h-2.01c-.073 0-.11.036-.11.108v2.847c0 .072.037.108.11.108zm12.17-2.36v-7.57c0-.107.07-.18.18-.18h2.29c.106 0 .18.072.18.18v7.642c0 1.46.81 2.288 2.053 2.288 1.223 0 2.034-.83 2.034-2.288v-7.642c0-.107.072-.18.18-.18h2.29c.107 0 .18.072.18.18v7.57c0 3.044-1.947 4.702-4.686 4.702-2.76 0-4.704-1.658-4.704-4.703zm15.67-7.57c0-.107.073-.18.18-.18h2.29c.108 0 .18.072.18.18v11.894c0 .108-.072.18-.18.18h-2.29c-.107 0-.18-.07-.18-.18V18.634zm8.99 0c0-.107.07-.18.18-.18h2.29c.107 0 .18.072.18.18v9.605c0 .07.035.1.107.1h5.406c.106 0 .18.07.18.18v2c0 .11-.073.18-.18.18H61.2c-.107 0-.18-.07-.18-.18V18.63zm14.99 12.074c-.107 0-.18-.072-.18-.18v-9.605c0-.072-.035-.108-.107-.108h-3.1c-.108 0-.18-.072-.18-.18v-2c0-.108.072-.18.18-.18h9.064c.107 0 .18.07.18.18v2c0 .107-.073.18-.18.18h-3.1c-.073 0-.11.036-.11.108v9.604c0 .108-.07.18-.18.18H76.01zm28.017 0c-.128 0-.2-.072-.236-.18l-2.122-7.623h-.038l-2.145 7.622c-.037.108-.11.18-.235.18h-1.8c-.11 0-.18-.07-.217-.18l-3.17-11.894c-.02-.107.017-.18.143-.18h2.325c.13 0 .2.072.22.18l1.764 7.695h.037l2.09-7.695c.036-.107.11-.18.234-.18h1.57c.107 0 .18.072.215.18l2.162 7.695h.04l1.692-7.695c.02-.126.09-.18.217-.18h2.306c.126 0 .162.072.144.18l-3.153 11.894c-.018.108-.108.18-.234.18h-1.803zm10.57-12.074c0-.107.07-.18.18-.18h2.287c.108 0 .18.072.18.18v11.894c0 .108-.072.18-.18.18h-2.29c-.107 0-.18-.07-.18-.18V18.634zm11.69 12.074c-.11 0-.18-.072-.18-.18v-9.605c0-.072-.036-.108-.11-.108h-3.1c-.105 0-.18-.072-.18-.18v-2c0-.108.074-.18.18-.18h9.066c.108 0 .18.07.18.18v2c0 .107-.07.18-.18.18h-3.1c-.072 0-.107.036-.107.108v9.604c0 .108-.073.18-.18.18h-2.29zm11.33-12.074c0-.107.072-.18.18-.18h2.29c.107 0 .18.072.18.18v4.596c0 .072.035.108.107.108h4c.072 0 .11-.036.11-.108v-4.596c0-.107.07-.18.18-.18h2.288c.107 0 .18.072.18.18v11.894c0 .108-.072.18-.18.18h-2.29c-.106 0-.18-.07-.18-.18v-4.72c0-.073-.036-.11-.107-.11h-4.003c-.072 0-.107.037-.107.11v4.72c0 .108-.07.18-.18.18H137.8c-.108 0-.18-.07-.18-.18V18.634z"
         enable-background="new"
         fill="#fff"
         id="path6" />
      <path
         fill="#D35B09"
         d="M174.707 0h59.818v50h-59.818z"
         id="path8" />
      <path
         fill="#fff"
         d="M212.52 18.386c-1.89-1.733-4.955-1.733-6.847 0l-1.282 1.178-1.28-1.178c-1.89-1.733-4.95-1.733-6.84 0-2.13 1.95-2.13 5.115 0 7.065l8.128 7.47 8.13-7.462c2.123-1.95 2.123-5.114 0-7.064z"
         id="path10" />
      <path
         fill="#D35B09"
         d="M174.707 0h59.818v50h-59.818z"
         id="path12"
         style="fill:#c83737" />
      <path
         fill="#fff"
         d="M212.52 18.386c-1.89-1.733-4.955-1.733-6.847 0l-1.282 1.178-1.28-1.178c-1.89-1.733-4.95-1.733-6.84 0-2.13 1.95-2.13 5.115 0 7.065l8.128 7.47 8.13-7.462c2.123-1.95 2.123-5.114 0-7.064z"
         id="path14" />
    </g>
  </g>
</svg>
