<?xml version="1.0" encoding="UTF-8"?>
<!-- Generator: Adobe Illustrator 15.0.2, SVG Export Plug-In . SVG Version: 6.00 Build 0)  -->
<!DOCTYPE svg PUBLIC "-//W3C//DTD SVG 1.1//EN" "http://www.w3.org/Graphics/SVG/1.1/DTD/svg11.dtd">
<svg xmlns="http://www.w3.org/2000/svg" xmlns:xlink="http://www.w3.org/1999/xlink" version="1.1" id="Layer_1" x="0px" y="0px" width="512px" height="512px" viewBox="0 0 512 512" enable-background="new 0 0 512 512" xml:space="preserve">
<g>
	<path d="M32,0C14.336,0,0,14.336,0,32v448c0,17.656,14.336,32,32,32h32V0H32z M416,0H96v512h320c17.656,0,32-14.344,32-32V32   C448,14.336,433.656,0,416,0z M270.25,123.328c26.75,0,48.406,21.695,48.406,48.414c0,26.758-21.688,48.453-48.406,48.453   c-26.766,0-48.461-21.695-48.461-48.453C221.789,144.992,243.484,123.328,270.25,123.328z M192,345.828   c0-58.703,35.484-106.242,79.234-106.242c43.734,0,79.234,47.586,79.234,106.242S192,404.484,192,345.828z M480,32h32v96h-32V32z    M480,160h32v96h-32V160z M480,288h32v96h-32V288z" fill="#FFFFFF"/>
</g>
</svg>
