<?xml version="1.0" encoding="UTF-8"?>
<!-- Generator: Adobe Illustrator 15.0.2, SVG Export Plug-In . SVG Version: 6.00 Build 0)  -->
<!DOCTYPE svg PUBLIC "-//W3C//DTD SVG 1.1//EN" "http://www.w3.org/Graphics/SVG/1.1/DTD/svg11.dtd">
<svg xmlns="http://www.w3.org/2000/svg" xmlns:xlink="http://www.w3.org/1999/xlink" version="1.1" id="Layer_1" x="0px" y="0px" width="512px" height="345.6px" viewBox="0 0 512 345.6" enable-background="new 0 0 512 345.6" xml:space="preserve">
<path d="M512,307.2V76.8c0,0-232.963,162.562-255.619,171C234.112,239.75,0,76.8,0,76.8v230.4c0,32,6.781,38.399,38.4,38.399H473.6  C505.975,345.6,512,339.975,512,307.2z M511.625,31.631C511.625,8.319,504.825,0,473.6,0H38.4C6.275,0,0,9.987,0,33.281l0.381,3.581  c0,0,231.288,159.237,256,167.938C282.5,194.688,512,33.281,512,33.281L511.625,31.631z" fill="#FFFFFF"/>
</svg>
