<?xml version="1.0" encoding="UTF-8" standalone="no"?>
<!-- Generated by IcoMoon.io -->

<svg
   xmlns:dc="http://purl.org/dc/elements/1.1/"
   xmlns:cc="http://creativecommons.org/ns#"
   xmlns:rdf="http://www.w3.org/1999/02/22-rdf-syntax-ns#"
   xmlns:svg="http://www.w3.org/2000/svg"
   xmlns="http://www.w3.org/2000/svg"
   xmlns:sodipodi="http://sodipodi.sourceforge.net/DTD/sodipodi-0.dtd"
   xmlns:inkscape="http://www.inkscape.org/namespaces/inkscape"
   version="1.1"
   width="20"
   height="20"
   viewBox="0 0 20 20"
   id="svg2"
   inkscape:version="0.91 r13725"
   sodipodi:docname="tecblog.svg">
  <metadata
     id="metadata12">
    <rdf:RDF>
      <cc:Work
         rdf:about="">
        <dc:format>image/svg+xml</dc:format>
        <dc:type
           rdf:resource="http://purl.org/dc/dcmitype/StillImage" />
      </cc:Work>
    </rdf:RDF>
  </metadata>
  <defs
     id="defs10" />
  <sodipodi:namedview
     pagecolor="#ffffff"
     bordercolor="#666666"
     borderopacity="1"
     objecttolerance="10"
     gridtolerance="10"
     guidetolerance="10"
     inkscape:pageopacity="0"
     inkscape:pageshadow="2"
     inkscape:window-width="1769"
     inkscape:window-height="969"
     id="namedview8"
     showgrid="false"
     inkscape:zoom="11.8"
     inkscape:cx="10"
     inkscape:cy="16.822034"
     inkscape:window-x="4"
     inkscape:window-y="1"
     inkscape:window-maximized="0"
     inkscape:current-layer="svg2" />
  <path
     fill="#ffffff"
     d="M14.5 18h-10c-0.276 0-0.5-0.224-0.5-0.5s0.224-0.5 0.5-0.5h10c0.276 0 0.5 0.224 0.5 0.5s-0.224 0.5-0.5 0.5z"
     id="path4" />
  <path
     fill="#ffffff"
     d="M16.5 3c-0.276 0-0.5 0.224-0.5 0.5v15c0 0.276-0.224 0.5-0.5 0.5h-11c-0.827 0-1.5-0.673-1.5-1.5s0.673-1.5 1.5-1.5h9c0.827 0 1.5-0.673 1.5-1.5v-12c0-0.827-0.673-1.5-1.5-1.5h-10c-0.827 0-1.5 0.673-1.5 1.5v15c0 1.378 1.122 2.5 2.5 2.5h11c0.827 0 1.5-0.673 1.5-1.5v-15c0-0.276-0.224-0.5-0.5-0.5zM3.5 2h10c0.276 0 0.5 0.224 0.5 0.5v12c0 0.276-0.224 0.5-0.5 0.5h-9c-0.562 0-1.082 0.187-1.5 0.501v-13.001c0-0.276 0.224-0.5 0.5-0.5z"
     id="path6" />
  <text
     xml:space="preserve"
     style="font-style:normal;font-weight:normal;font-size:7.5px;line-height:125%;font-family:sans-serif;letter-spacing:0px;word-spacing:0px;fill:#ffffff;fill-opacity:1;stroke:none;stroke-width:1px;stroke-linecap:butt;stroke-linejoin:miter;stroke-opacity:1"
     x="4.7457628"
     y="10.254237"
     id="text4140"
     sodipodi:linespacing="125%"><tspan
       sodipodi:role="line"
       id="tspan4142"
       x="4.7457628"
       y="10.254237">@</tspan></text>
</svg>
